<svg xmlns="http://www.w3.org/2000/svg" width="17" height="17" viewBox="0 0 17 17">
  <path id="earth" d="M8.516,0a8.5,8.5,0,1,0,8.5,8.5A8.51,8.51,0,0,0,8.516,0ZM1.041,9H3.978a11.764,11.764,0,0,0,.513,3h-2.6a7.426,7.426,0,0,1-.847-3ZM3.978,8H1.041a7.426,7.426,0,0,1,.847-3h2.6A11.761,11.761,0,0,0,3.978,8ZM5.547,5h5.9a10.779,10.779,0,0,1,.569,3H4.978A10.743,10.743,0,0,1,5.547,5ZM4.978,9h7.035a10.819,10.819,0,0,1-.572,3H5.55A10.783,10.783,0,0,1,4.978,9Zm8.035,0h2.978a7.426,7.426,0,0,1-.847,3H12.5a11.764,11.764,0,0,0,.513-3Zm0-1a11.761,11.761,0,0,0-.51-3h2.641a7.458,7.458,0,0,1,.847,3ZM14.5,4H12.148A12.189,12.189,0,0,0,10.6,1.3,7.519,7.519,0,0,1,14.5,4ZM9.074,1.028A11.326,11.326,0,0,1,11.046,4h-5.1a11.3,11.3,0,0,1,1.97-2.97c.2-.015.4-.03.6-.03C8.7,1,8.889,1.015,9.074,1.028Zm-2.691.285A12.163,12.163,0,0,0,4.843,4H2.529A7.518,7.518,0,0,1,6.383,1.313ZM2.529,13H4.846a12.144,12.144,0,0,0,1.547,2.689A7.51,7.51,0,0,1,2.529,13Zm5.4,2.97A11.355,11.355,0,0,1,5.948,13h5.094a11.328,11.328,0,0,1-1.979,2.972c-.181.013-.363.028-.547.028-.2,0-.4-.015-.59-.03Zm2.661-.267A12.177,12.177,0,0,0,12.144,13H14.5A7.518,7.518,0,0,1,10.587,15.7Z" transform="translate(-0.016)" fill="#082070"/>
</svg>
