<svg id="guarantee" xmlns="http://www.w3.org/2000/svg" width="178.888" height="178.888" viewBox="0 0 178.888 178.888">
  <path id="Path_8" data-name="Path 8" d="M174.966,80.916c-1.221-1.618-2.485-3.293-2.686-4.592-.218-1.384.481-3.416,1.157-5.378.984-2.845,2.094-6.071,1.1-9.146-1.015-3.133-3.843-5.109-6.339-6.854-1.677-1.171-3.407-2.381-4.019-3.578-.626-1.224-.59-3.36-.556-5.423.05-3.024.106-6.448-1.808-9.081s-5.21-3.648-8.109-4.531c-1.965-.6-4-1.221-4.959-2.18s-1.582-3-2.18-4.961c-.883-2.9-1.887-6.186-4.534-8.109-2.63-1.915-6.057-1.862-9.079-1.808-2.063.039-4.2.07-5.423-.556-1.2-.609-2.407-2.342-3.578-4.019-1.741-2.5-3.718-5.322-6.851-6.339-3.077-1-6.309.112-9.157,1.09-1.962.676-4,1.372-5.378,1.16-1.3-.2-2.974-1.467-4.6-2.686C95.532,2.085,92.764,0,89.444,0s-6.088,2.085-8.528,3.924C79.3,5.146,77.623,6.406,76.324,6.61c-1.378.221-3.413-.484-5.378-1.16C68.1,4.469,64.872,3.36,61.8,4.355c-3.133,1.017-5.109,3.843-6.854,6.339-1.171,1.674-2.381,3.407-3.578,4.017-1.224.626-3.363.587-5.423.556-3.024-.059-6.448-.109-9.081,1.808s-3.648,5.21-4.531,8.109c-.6,1.968-1.221,4-2.18,4.961s-3,1.582-4.964,2.183c-2.9.883-6.183,1.887-8.109,4.531s-1.859,6.057-1.808,9.081c.034,2.066.067,4.2-.556,5.425-.609,1.194-2.342,2.4-4.017,3.575-2.5,1.744-5.322,3.72-6.342,6.854-1,3.077.115,6.3,1.1,9.151.676,1.965,1.378,3.994,1.16,5.378-.2,1.3-1.465,2.974-2.686,4.592C2.085,83.356,0,86.123,0,89.444s2.085,6.088,3.924,8.528c1.221,1.618,2.482,3.3,2.686,4.6l5.523-.869c-.419-2.681-2.11-4.922-3.745-7.091-1.375-1.825-2.8-3.712-2.8-5.163s1.423-3.337,2.8-5.163c1.635-2.169,3.323-4.411,3.745-7.091.433-2.756-.5-5.456-1.4-8.067-.73-2.116-1.484-4.307-1.062-5.6.439-1.35,2.365-2.694,4.226-4,2.236-1.562,4.55-3.178,5.794-5.615,1.258-2.465,1.213-5.308,1.166-8.058-.036-2.253-.073-4.578.741-5.7s3.058-1.814,5.221-2.474c2.622-.8,5.336-1.63,7.284-3.578s2.776-4.659,3.575-7.281c.66-2.161,1.339-4.4,2.474-5.221s3.449-.78,5.7-.741c2.75.045,5.59.092,8.058-1.166,2.437-1.244,4.053-3.555,5.618-5.794,1.3-1.862,2.647-3.785,4-4.223,1.291-.425,3.483.335,5.6,1.062,2.613.9,5.311,1.828,8.067,1.4,2.678-.419,4.922-2.11,7.091-3.745,1.822-1.375,3.709-2.8,5.16-2.8s3.337,1.423,5.163,2.8c2.169,1.635,4.411,3.323,7.091,3.745,2.75.425,5.456-.5,8.067-1.4,2.119-.73,4.3-1.487,5.6-1.062,1.347.439,2.694,2.362,4,4.223,1.562,2.236,3.181,4.55,5.615,5.794,2.465,1.258,5.319,1.219,8.058,1.166,2.253-.034,4.581-.075,5.7.741s1.811,3.058,2.474,5.221c.8,2.622,1.627,5.336,3.575,7.284s4.659,2.776,7.281,3.575c2.158.66,4.394,1.342,5.218,2.474s.777,3.446.741,5.7c-.045,2.75-.089,5.593,1.168,8.058,1.244,2.437,3.555,4.053,5.791,5.615,1.862,1.3,3.785,2.647,4.226,4,.419,1.294-.333,3.483-1.062,5.6-.9,2.611-1.828,5.311-1.4,8.067.422,2.678,2.113,4.922,3.745,7.088,1.372,1.828,2.8,3.715,2.8,5.165s-1.423,3.337-2.8,5.165c-1.632,2.166-3.321,4.408-3.745,7.088l5.526.869c.2-1.3,1.465-2.974,2.686-4.6,1.836-2.44,3.922-5.207,3.922-8.528S176.8,83.356,174.966,80.916Zm-22.9,60.3c-2.622.8-5.336,1.627-7.281,3.575s-2.776,4.659-3.578,7.281c-.657,2.161-1.339,4.394-2.474,5.218-1.118.813-3.46.774-5.7.741-2.75-.045-5.59-.089-8.061,1.168-2.435,1.244-4.05,3.555-5.613,5.791-1.3,1.862-2.647,3.785-4,4.226-1.3.425-3.483-.33-5.6-1.062-2.611-.9-5.314-1.811-8.067-1.4-2.681.422-4.922,2.113-7.088,3.745-1.825,1.375-3.712,2.8-5.163,2.8s-3.337-1.423-5.165-2.8c-2.166-1.632-4.411-3.321-7.088-3.745-2.748-.414-5.456.5-8.067,1.4-2.116.73-4.3,1.487-5.6,1.062-1.35-.439-2.7-2.365-4-4.226-1.565-2.239-3.181-4.55-5.615-5.794-2.465-1.258-5.311-1.213-8.056-1.166-2.253.028-4.581.075-5.7-.743s-1.814-3.058-2.474-5.218c-.8-2.622-1.63-5.336-3.578-7.281s-4.659-2.776-7.284-3.578c-2.161-.657-4.4-1.339-5.218-2.474l-4.52,3.293c1.923,2.641,5.21,3.645,8.106,4.528,1.968.6,4,1.221,4.964,2.183s1.582,2.994,2.183,4.961c.883,2.9,1.887,6.183,4.531,8.106s6.057,1.856,9.084,1.808c2.06-.022,4.2-.067,5.423.556,1.194.609,2.4,2.342,3.575,4.019,1.744,2.5,3.72,5.322,6.854,6.342,3.072.989,6.3-.112,9.148-1.1,1.965-.674,4-1.395,5.378-1.157,1.3.2,2.974,1.465,4.592,2.686,2.44,1.839,5.207,3.924,8.528,3.924s6.088-2.085,8.528-3.922c1.618-1.221,3.3-2.485,4.6-2.686,1.364-.24,3.413.481,5.378,1.157,2.851.984,6.079,2.1,9.146,1.1,3.133-1.015,5.109-3.846,6.854-6.342,1.171-1.674,2.384-3.407,3.575-4.017,1.224-.629,3.354-.6,5.423-.556,3,.048,6.446.106,9.081-1.808s3.645-5.207,4.528-8.106c.6-1.965,1.221-4,2.183-4.961s2.994-1.582,4.959-2.18c2.9-.883,6.186-1.889,8.109-4.534l-4.52-3.287C156.462,139.871,154.226,140.55,152.066,141.212Z"/>
  <path id="Path_9" data-name="Path 9" d="M18.771,62.156v-5.59a2.794,2.794,0,0,0-2.8-2.8h-5.59v5.59h2.8v2.8a2.8,2.8,0,1,1-5.59,0V45.385a2.8,2.8,0,1,1,5.59,0v2.8h5.59v-2.8A8.385,8.385,0,0,0,2,45.385V62.156a8.385,8.385,0,1,0,16.771,0ZM21.566,37V62.156a8.385,8.385,0,1,0,16.771,0V37h-5.59V62.156a2.8,2.8,0,1,1-5.59,0V37Zm19.566,8.385V70.541h5.59v-5.59h5.59v5.59H57.9V45.385a8.385,8.385,0,0,0-16.771,0Zm11.18,0V59.361h-5.59V45.385a2.8,2.8,0,1,1,5.59,0Zm27.951,0V70.541h5.59v-5.59h5.59v5.59h5.59V45.385a8.385,8.385,0,0,0-16.771,0Zm8.385-2.8a2.8,2.8,0,0,1,2.8,2.8V59.361h-5.59V45.385A2.8,2.8,0,0,1,88.649,42.59ZM60.7,39.8V70.541h5.59v-8.8l6.2,7.754a2.8,2.8,0,0,0,2.183,1.048h2.8v-5.59H76.015l-6.8-8.506A9.783,9.783,0,0,0,67.685,37H63.493A2.794,2.794,0,0,0,60.7,39.8Zm5.59,2.8h1.4a4.193,4.193,0,0,1,0,8.385h-1.4ZM111.01,53.234l-5.789-14.476A2.824,2.824,0,0,0,102.1,37.05,2.794,2.794,0,0,0,99.829,39.8V70.541h5.59V54.307l5.789,14.476a2.8,2.8,0,0,0,2.594,1.758,2.847,2.847,0,0,0,.531-.05,2.794,2.794,0,0,0,2.267-2.745V37h-5.59ZM130.575,42.59h5.59V37H119.395v5.59h5.59V70.541h5.59Zm22.361,0V37h-11.18a2.793,2.793,0,0,0-2.8,2.8V67.746a2.793,2.793,0,0,0,2.8,2.8h11.18v-5.59h-8.385V56.566h8.385v-5.59h-8.385V42.59Zm2.8-2.8V67.746a2.793,2.793,0,0,0,2.8,2.8h11.18v-5.59h-8.385V56.566h8.385v-5.59h-8.385V42.59h8.385V37h-11.18A2.793,2.793,0,0,0,155.732,39.8Z" transform="translate(3.59 66.419)"/>
  <path id="Path_10" data-name="Path 10" d="M146.756,76.878A69.878,69.878,0,0,0,7,76.878a70.863,70.863,0,0,0,.562,8.732l5.546-.693a65.128,65.128,0,0,1-.517-8.039,64.288,64.288,0,1,1,128.056,8.039l5.546.693A69.8,69.8,0,0,0,146.756,76.878Zm-27.2,55.318-3.418-4.422a64.226,64.226,0,0,1-78.506,0L34.208,132.2a69.811,69.811,0,0,0,85.343,0Z" transform="translate(12.566 12.566)"/>
  <path id="Path_11" data-name="Path 11" d="M25.59,21H20v5.59h2.8V54.541h5.59V23.8A2.8,2.8,0,0,0,25.59,21Zm15.373,0a9.794,9.794,0,0,0-9.783,9.783V44.759a9.783,9.783,0,1,0,19.566,0V30.783A9.794,9.794,0,0,0,40.963,21Zm4.193,23.759a4.193,4.193,0,0,1-8.385,0V30.783a4.193,4.193,0,0,1,8.385,0ZM63.324,21a9.794,9.794,0,0,0-9.783,9.783V44.759a9.783,9.783,0,0,0,19.566,0V30.783A9.794,9.794,0,0,0,63.324,21Zm4.193,23.759a4.193,4.193,0,0,1-8.385,0V30.783a4.193,4.193,0,1,1,8.385,0Z" transform="translate(35.902 37.697)"/>
  <path id="Path_12" data-name="Path 12" d="M42.1,45.914l11.18-22.361,5,2.5L47.1,48.413Z" transform="translate(75.582 42.28)"/>
  <rect id="Rectangle_4" data-name="Rectangle 4" width="5" height="5" transform="translate(115 70)"/>
  <rect id="Rectangle_5" data-name="Rectangle 5" width="6" height="6" transform="translate(131 81)"/>
</svg>
