<svg id="magnifier" xmlns="http://www.w3.org/2000/svg" width="16" height="16" viewBox="0 0 16 16">
  <path id="icon-bound" d="M16,0H0V16H16Z" fill="none"/>
  <path id="Path_18" data-name="Path 18" d="M15.708,15,15,15.708a.991.991,0,0,1-.33.219,1.009,1.009,0,0,1-.753,0,.991.991,0,0,1-.33-.219L9.912,12.033a6.519,6.519,0,1,1,2.121-2.121l3.675,3.675a.991.991,0,0,1,.219.33,1.009,1.009,0,0,1,0,.753A.991.991,0,0,1,15.708,15ZM6.5,11a4.546,4.546,0,0,0,.885-.086A4.447,4.447,0,0,0,9,10.247,4.573,4.573,0,0,0,10.247,9a4.447,4.447,0,0,0,.667-1.611,4.573,4.573,0,0,0,0-1.769A4.447,4.447,0,0,0,10.247,4,4.572,4.572,0,0,0,9,2.753a4.447,4.447,0,0,0-1.611-.667,4.573,4.573,0,0,0-1.77,0A4.447,4.447,0,0,0,4,2.753,4.572,4.572,0,0,0,2.753,4a4.447,4.447,0,0,0-.667,1.611,4.573,4.573,0,0,0,0,1.769A4.447,4.447,0,0,0,2.753,9,4.573,4.573,0,0,0,4,10.247a4.447,4.447,0,0,0,1.611.667A4.546,4.546,0,0,0,6.5,11Z" fill="#fff"/>
</svg>
