<svg xmlns="http://www.w3.org/2000/svg" width="54.947" height="40.439" viewBox="0 0 54.947 40.439">
  <g id="menu-svgrepo-com_1_" data-name="menu-svgrepo-com (1)" transform="translate(0 -39.211)">
    <g id="Group_4" data-name="Group 4" transform="translate(0 39.211)">
      <g id="Group_3" data-name="Group 3" transform="translate(0 0)">
        <path id="Path_1" data-name="Path 1" d="M51.842,39.211H3.106A3.109,3.109,0,0,0,0,42.317v4.5a3.109,3.109,0,0,0,3.106,3.106H51.842a3.109,3.109,0,0,0,3.106-3.106v-4.5A3.109,3.109,0,0,0,51.842,39.211Z" transform="translate(0 -39.211)"/>
        <path id="Path_2" data-name="Path 2" d="M51.842,119.546H3.106A3.109,3.109,0,0,0,0,122.652v4.5a3.109,3.109,0,0,0,3.106,3.106H51.842a3.109,3.109,0,0,0,3.106-3.106v-4.5A3.109,3.109,0,0,0,51.842,119.546Z" transform="translate(0 -104.683)"/>
        <path id="Path_3" data-name="Path 3" d="M51.842,199.881H3.106A3.109,3.109,0,0,0,0,202.987v4.5a3.109,3.109,0,0,0,3.106,3.106H51.842a3.109,3.109,0,0,0,3.106-3.106v-4.5A3.109,3.109,0,0,0,51.842,199.881Z" transform="translate(0 -170.156)"/>
      </g>
    </g>
  </g>
</svg>
