<svg xmlns="http://www.w3.org/2000/svg" width="29.986" height="29.996" viewBox="0 0 29.986 29.996">
  <path id="phone-svgrepo-com" d="M29.678,22.753c-1.117-2.111-5-4.4-5.165-4.5a3.081,3.081,0,0,0-1.5-.434,1.872,1.872,0,0,0-1.675.934A18.548,18.548,0,0,1,19.9,20.347,2.4,2.4,0,0,1,16.4,20L10,13.609a2.407,2.407,0,0,1-.351-3.5,18.732,18.732,0,0,1,1.6-1.444,1.849,1.849,0,0,0,.86-1.11,2.749,2.749,0,0,0-.363-2.075c-.1-.165-2.386-4.043-4.5-5.159A2.744,2.744,0,0,0,4.025.808L2.614,2.219a7.713,7.713,0,0,0-2.4,7.519c.532,2.3,2.081,4.743,4.606,7.268L13,25.184C16.19,28.379,19.237,30,22.05,30h0a8.009,8.009,0,0,0,5.731-2.613l1.411-1.411A2.729,2.729,0,0,0,29.678,22.753Z" transform="translate(-0.014 -0.004)" fill="#0b75c9"/>
</svg>
