<svg xmlns="http://www.w3.org/2000/svg" width="130.251" height="160.043" viewBox="0 0 130.251 160.043">
  <g id="protection" transform="translate(-20.181)">
    <path id="Path_16" data-name="Path 16" d="M144.9,0H25.717a5.535,5.535,0,0,0-5.536,5.536V94.923c0,36.081,60.3,63.489,62.867,64.637a5.537,5.537,0,0,0,4.522,0c2.568-1.149,62.862-28.556,62.862-64.638V5.536A5.534,5.534,0,0,0,144.9,0Zm-5.536,94.922c0,22.93-37.071,45.389-54.052,53.485-16.981-8.1-54.055-30.554-54.057-53.485V11.071H139.362V94.922Z"/>
    <path id="Path_17" data-name="Path 17" d="M72.409,129.859a158.853,158.853,0,0,0,18.23,11.347,5.533,5.533,0,0,0,5.226,0,159.736,159.736,0,0,0,18.23-11.347c8.18-5.974,21.9-17.66,21.9-28.808V35.038a5.535,5.535,0,0,0-5.536-5.536H56.041A5.535,5.535,0,0,0,50.5,35.038v66.013C50.5,112.2,64.228,123.887,72.409,129.859ZM61.576,40.573h63.349v60.477c0,2.486-3.628,9.838-17.359,19.866a144.239,144.239,0,0,1-14.316,9.1,143.1,143.1,0,0,1-14.313-9.1C65.2,110.892,61.576,103.538,61.576,101.051V40.573Z" transform="translate(-7.942 -7.727)"/>
  </g>
</svg>
