<svg xmlns="http://www.w3.org/2000/svg" width="131.392" height="185.165" viewBox="0 0 131.392 185.165">
  <g id="tick-file" transform="translate(-4.647)">
    <g id="Group_3" data-name="Group 3" transform="translate(4.647)">
      <path id="Path_13" data-name="Path 13" d="M104.752,35.008V30.043a7.553,7.553,0,0,0-7.563-7.557H86.039A15.719,15.719,0,0,0,87.7,15.5a15.461,15.461,0,1,0-29.262,7H43.5a7.552,7.552,0,0,0-7.557,7.557v4.959H16.9A12.256,12.256,0,0,0,4.647,47.258V172.909A12.254,12.254,0,0,0,16.9,185.165H123.789a12.249,12.249,0,0,0,12.25-12.256V47.258a12.255,12.255,0,0,0-12.25-12.25H104.752ZM63.026,15.5a9.212,9.212,0,1,1,15.259,6.99H66.2A9.25,9.25,0,0,1,63.026,15.5Zm60.5,150.788a6.368,6.368,0,0,1-6.359,6.365H23.522a6.36,6.36,0,0,1-6.359-6.365V53.877a6.359,6.359,0,0,1,6.359-6.359H35.934a6.255,6.255,0,0,0,6.255,6.255h56.3a6.257,6.257,0,0,0,6.261-6.255H117.17a6.359,6.359,0,0,1,6.359,6.359V166.29Z" transform="translate(-4.647)"/>
      <path id="Path_14" data-name="Path 14" d="M29.866,36.264,22.24,28.626a4.582,4.582,0,0,0-6.481,0l-2.367,2.367a4.579,4.579,0,0,0,0,6.475l13.4,13.407a4.6,4.6,0,0,0,6.573-.1L56.628,26.1a4.574,4.574,0,0,0-.185-6.469l-2.43-2.291a4.543,4.543,0,0,0-3.275-1.25,4.617,4.617,0,0,0-3.2,1.435Z" transform="translate(30.793 76.988)"/>
      <path id="Path_15" data-name="Path 15" d="M53.808,10.9A45.765,45.765,0,1,0,99.52,56.673,45.787,45.787,0,0,0,53.808,10.9Zm0,79.031a33.263,33.263,0,1,1,33.214-33.26A33.268,33.268,0,0,1,53.808,89.934Z" transform="translate(11.885 52.186)"/>
    </g>
  </g>
</svg>
