<svg xmlns="http://www.w3.org/2000/svg" width="83.508" height="60" viewBox="0 0 83.508 60">
  <g id="tick-2" transform="translate(0 -58.533)">
    <path id="Path_2" data-name="Path 2" d="M68.164,114.875a2.413,2.413,0,0,1-3.551.151l-6.479-6.478H41.842L66.166,131.88l43.156-49.347H95.442Z" transform="translate(-33.488 -19.208)" fill="#d4f9bf"/>
    <path id="Path_3" data-name="Path 3" d="M83.293,59.946A2.41,2.41,0,0,0,81.1,58.533H60.808a2.41,2.41,0,0,0-1.842.856L32.695,90.542l-5.321-5.321a2.411,2.411,0,0,0-1.7-.706H2.41A2.409,2.409,0,0,0,.741,88.664l30.436,29.2a2.41,2.41,0,0,0,1.668.671l.106,0a2.41,2.41,0,0,0,1.708-.821L82.912,62.529A2.41,2.41,0,0,0,83.293,59.946Zm-50.6,52.691L8.4,89.335h16.27l6.47,6.47a2.41,2.41,0,0,0,3.546-.151l27.24-32.3H75.79Z" transform="translate(0)" fill="#90eaa2"/>
  </g>
</svg>
