<svg xmlns="http://www.w3.org/2000/svg" width="97.302" height="30.279" viewBox="0 0 97.302 30.279">
  <g id="Group_1164" data-name="Group 1164" transform="translate(-1052.355 -144.897)">
    <rect id="Rectangle_974" data-name="Rectangle 974" width="6.056" height="18.167" transform="translate(1052.355 157.009)" fill="#fcfcfc"/>
    <rect id="Rectangle_975" data-name="Rectangle 975" width="6.056" height="18.167" transform="translate(1064.467 157.009)" fill="#fcfcfc"/>
    <rect id="Rectangle_976" data-name="Rectangle 976" width="6.056" height="30.279" transform="translate(1076.578 144.897)" fill="#fcfcfc"/>
    <rect id="Rectangle_977" data-name="Rectangle 977" width="6.056" height="18.167" transform="translate(1070.522 144.897) rotate(90)" fill="#fcfcfc"/>
    <g id="Group_1163" data-name="Group 1163" transform="translate(1088.69 146.411)">
      <g id="Group_1162" data-name="Group 1162" transform="translate(0)">
        <path id="Path_6995" data-name="Path 6995" d="M1228.384,154.191l-1.719,4.577h-.773l-1.709-4.577v4.577h-1.75v-6.784h2.431l1.414,3.845,1.424-3.845h2.431v6.784h-1.75Z" transform="translate(-1222.434 -151.984)" fill="#fcfcfc"/>
        <path id="Path_6996" data-name="Path 6996" d="M1264.263,157.741h-2.818l-.346,1.027h-1.9l2.553-6.784h2.2l2.564,6.784h-1.9Zm-2.36-1.475h1.9l-.956-2.757Z" transform="translate(-1251.343 -151.984)" fill="#fcfcfc"/>
        <path id="Path_6997" data-name="Path 6997" d="M1296.772,156.47h-.9v2.3h-1.75v-6.784h3.4a2.185,2.185,0,0,1,2.36,2.258,2.056,2.056,0,0,1-1.353,2.034l1.383,2.492h-2Zm.488-3.011h-1.383v1.526h1.383a.767.767,0,1,0,0-1.526Z" transform="translate(-1278.811 -151.984)" fill="#fcfcfc"/>
        <path id="Path_6998" data-name="Path 6998" d="M1329.865,154.191l-1.719,4.577h-.773l-1.709-4.577v4.577h-1.749v-6.784h2.431l1.414,3.845,1.424-3.845h2.431v6.784h-1.75Z" transform="translate(-1302.235 -151.984)" fill="#fcfcfc"/>
        <path id="Path_6999" data-name="Path 6999" d="M1365.744,157.741h-2.818l-.346,1.027h-1.9l2.553-6.784h2.2l2.563,6.784h-1.9Zm-2.36-1.475h1.9l-.956-2.757Z" transform="translate(-1331.144 -151.984)" fill="#fcfcfc"/>
        <path id="Path_7000" data-name="Path 7000" d="M1398.253,156.47h-.9v2.3h-1.75v-6.784h3.4a2.185,2.185,0,0,1,2.36,2.258,2.056,2.056,0,0,1-1.353,2.034l1.383,2.492h-2Zm.488-3.011h-1.383v1.526h1.383a.767.767,0,1,0,0-1.526Z" transform="translate(-1358.612 -151.984)" fill="#fcfcfc"/>
        <path id="Path_7001" data-name="Path 7001" d="M1427.848,157.741h-2.818l-.346,1.027h-1.9l2.553-6.784h2.2l2.563,6.784h-1.9Zm-2.36-1.475h1.9l-.956-2.757Z" transform="translate(-1379.98 -151.984)" fill="#fcfcfc"/>
        <path id="Path_7002" data-name="Path 7002" d="M1222.434,199.6h3.845a1.781,1.781,0,0,1,1.983,1.729,1.515,1.515,0,0,1-1.16,1.556,1.625,1.625,0,0,1,1.292,1.658,1.805,1.805,0,0,1-1.994,1.841h-3.967Zm3.448,2.624a.574.574,0,0,0,.6-.59.566.566,0,0,0-.6-.58h-1.7v1.17Zm.061,2.706a.607.607,0,0,0,.672-.621.628.628,0,0,0-.672-.641h-1.76v1.261Z" transform="translate(-1222.434 -189.427)" fill="#fcfcfc"/>
        <path id="Path_7003" data-name="Path 7003" d="M1253.345,199.6h4.974v1.475h-3.225V202.2h3.153v1.485h-3.153v1.221h3.225v1.475h-4.974Z" transform="translate(-1246.741 -189.427)" fill="#fcfcfc"/>
        <path id="Path_7004" data-name="Path 7004" d="M1280.28,199.6h1.749v5.259h2.726v1.526h-4.476Z" transform="translate(-1267.922 -189.427)" fill="#fcfcfc"/>
        <path id="Path_7005" data-name="Path 7005" d="M1302.749,199.6h4.974v1.475H1304.5V202.2h3.153v1.485H1304.5v1.221h3.224v1.475h-4.974Z" transform="translate(-1285.591 -189.427)" fill="#fcfcfc"/>
        <path id="Path_7006" data-name="Path 7006" d="M1329.684,199.6h2.848c2.136,0,3.672,1.282,3.672,3.387a3.342,3.342,0,0,1-3.662,3.4h-2.859Zm2.848,5.259a1.8,1.8,0,0,0,1.882-1.871,1.737,1.737,0,0,0-1.872-1.861h-1.109v3.733Z" transform="translate(-1306.771 -189.427)" fill="#fcfcfc"/>
        <path id="Path_7007" data-name="Path 7007" d="M1362.672,192.073h1.75v6.784h-1.75Zm.875-2.045a.81.81,0,0,1,.793.8.793.793,0,1,1-.793-.8Z" transform="translate(-1332.712 -181.9)" fill="#fcfcfc"/>
        <path id="Path_7008" data-name="Path 7008" d="M1374.053,203.647l-2.573-4.048h1.973l1.475,2.5,1.455-2.5h1.983l-2.563,4.048v2.736h-1.75Z" transform="translate(-1339.638 -189.427)" fill="#fcfcfc"/>
        <path id="Path_7009" data-name="Path 7009" d="M1404.382,199.6h4.974v1.475h-3.224V202.2h3.153v1.485h-3.153v1.221h3.224v1.475h-4.974Z" transform="translate(-1365.511 -189.427)" fill="#fcfcfc"/>
        <path id="Path_7010" data-name="Path 7010" d="M1431.317,199.6h1.75v5.259h2.726v1.526h-4.476Z" transform="translate(-1386.692 -189.427)" fill="#fcfcfc"/>
        <path id="Path_7011" data-name="Path 7011" d="M1453.786,199.6h4.974v1.475h-3.224V202.2h3.153v1.485h-3.153v1.221h3.224v1.475h-4.974Z" transform="translate(-1404.361 -189.427)" fill="#fcfcfc"/>
        <path id="Path_7012" data-name="Path 7012" d="M1483.367,204.085h-.9v2.3h-1.749V199.6h3.4a2.185,2.185,0,0,1,2.36,2.258,2.055,2.055,0,0,1-1.353,2.034l1.383,2.492h-2Zm.488-3.011h-1.383V202.6h1.383a.767.767,0,1,0,0-1.526Z" transform="translate(-1425.542 -189.427)" fill="#fcfcfc"/>
        <path id="Path_7013" data-name="Path 7013" d="M1222.434,247.214h3.845a1.781,1.781,0,0,1,1.983,1.729,1.515,1.515,0,0,1-1.16,1.556,1.625,1.625,0,0,1,1.292,1.658A1.805,1.805,0,0,1,1226.4,254h-3.967Zm3.448,2.624a.574.574,0,0,0,.6-.59.566.566,0,0,0-.6-.58h-1.7v1.17Zm.061,2.706a.607.607,0,0,0,.672-.621.628.628,0,0,0-.672-.641h-1.76v1.261Z" transform="translate(-1222.434 -226.869)" fill="#fcfcfc"/>
        <path id="Path_7014" data-name="Path 7014" d="M1253.345,239.688h1.749v6.784h-1.749Zm.875-2.045a.81.81,0,0,1,.793.8.793.793,0,1,1-.793-.8Z" transform="translate(-1246.741 -219.343)" fill="#fcfcfc"/>
        <path id="Path_7015" data-name="Path 7015" d="M1268.341,251.7h-.9V254h-1.75v-6.784h3.4a2.185,2.185,0,0,1,2.36,2.258,2.056,2.056,0,0,1-1.353,2.034l1.383,2.492h-2Zm.488-3.011h-1.383v1.526h1.383a.767.767,0,1,0,0-1.526Z" transform="translate(-1256.454 -226.869)" fill="#fcfcfc"/>
        <path id="Path_7016" data-name="Path 7016" d="M1295.484,247.214h1.75v5.259h2.726V254h-4.476Z" transform="translate(-1279.878 -226.869)" fill="#fcfcfc"/>
        <path id="Path_7017" data-name="Path 7017" d="M1317.953,239.688h1.75v6.784h-1.75Zm.875-2.045a.81.81,0,0,1,.793.8.793.793,0,1,1-.793-.8Z" transform="translate(-1297.547 -219.343)" fill="#fcfcfc"/>
        <path id="Path_7018" data-name="Path 7018" d="M1331.666,239.838a3.192,3.192,0,0,1,2.9,1.577l-1.465.773a1.686,1.686,0,0,0-1.434-.8,1.965,1.965,0,0,0,0,3.926,2.112,2.112,0,0,0,1.282-.407v-.57h-1.556V242.88h3.275v2.655a3.919,3.919,0,0,1-3,1.322,3.513,3.513,0,1,1,0-7.019Zm-1.79-1.3.671-.559a1.362,1.362,0,0,0,1.119.59,1.3,1.3,0,0,0,1.109-.59l.671.559a2.2,2.2,0,0,1-1.78.9A2.245,2.245,0,0,1,1329.876,238.536Z" transform="translate(-1305.443 -219.606)" fill="#fcfcfc"/>
        <path id="Path_7019" data-name="Path 7019" d="M1362.086,239.688h1.75v6.784h-1.75Zm.875-2.045a.81.81,0,0,1,.793.8.793.793,0,1,1-.793-.8Z" transform="translate(-1332.251 -219.343)" fill="#fcfcfc"/>
      </g>
    </g>
  </g>
</svg>
